<svg width="30" height="20" viewBox="0 0 12 12" fill="none" xmlns="http://www.w3.org/2000/svg">
    <path d="M11.55 4.5H9V0.5625C9 0.251719 8.79862 0 8.55 0H5.85C5.60138 0 5.4 0.251719 5.4 0.5625V2.25H4.2V0.375C4.2 0.167812 4.06575 0 3.9 0H3.6C3.43425 0 3.3 0.167812 3.3 0.375V2.25H2.1V0.375C2.1 0.167812 1.96575 0 1.8 0H1.5C1.33425 0 1.2 0.167812 1.2 0.375V2.25H0.45C0.201375 2.25 0 2.50172 0 2.8125V11.25C0 11.6641 0.268688 12 0.6 12H11.4C11.7313 12 12 11.6641 12 11.25V5.0625C12 4.75172 11.7984 4.5 11.55 4.5ZM2.4 9.46875C2.4 9.62414 2.29931 9.75 2.175 9.75H1.425C1.30069 9.75 1.2 9.62414 1.2 9.46875V8.53125C1.2 8.37586 1.30069 8.25 1.425 8.25H2.175C2.29931 8.25 2.4 8.37586 2.4 8.53125V9.46875ZM2.4 7.21875C2.4 7.37414 2.29931 7.5 2.175 7.5H1.425C1.30069 7.5 1.2 7.37414 1.2 7.21875V6.28125C1.2 6.12586 1.30069 6 1.425 6H2.175C2.29931 6 2.4 6.12586 2.4 6.28125V7.21875ZM2.4 4.96875C2.4 5.12414 2.29931 5.25 2.175 5.25H1.425C1.30069 5.25 1.2 5.12414 1.2 4.96875V4.03125C1.2 3.87586 1.30069 3.75 1.425 3.75H2.175C2.29931 3.75 2.4 3.87586 2.4 4.03125V4.96875ZM4.8 9.46875C4.8 9.62414 4.69931 9.75 4.575 9.75H3.825C3.70069 9.75 3.6 9.62414 3.6 9.46875V8.53125C3.6 8.37586 3.70069 8.25 3.825 8.25H4.575C4.69931 8.25 4.8 8.37586 4.8 8.53125V9.46875ZM4.8 7.21875C4.8 7.37414 4.69931 7.5 4.575 7.5H3.825C3.70069 7.5 3.6 7.37414 3.6 7.21875V6.28125C3.6 6.12586 3.70069 6 3.825 6H4.575C4.69931 6 4.8 6.12586 4.8 6.28125V7.21875ZM4.8 4.96875C4.8 5.12414 4.69931 5.25 4.575 5.25H3.825C3.70069 5.25 3.6 5.12414 3.6 4.96875V4.03125C3.6 3.87586 3.70069 3.75 3.825 3.75H4.575C4.69931 3.75 4.8 3.87586 4.8 4.03125V4.96875ZM7.8 7.21875C7.8 7.37414 7.69931 7.5 7.575 7.5H6.825C6.70069 7.5 6.6 7.37414 6.6 7.21875V6.28125C6.6 6.12586 6.70069 6 6.825 6H7.575C7.69931 6 7.8 6.12586 7.8 6.28125V7.21875ZM7.8 4.96875C7.8 5.12414 7.69931 5.25 7.575 5.25H6.825C6.70069 5.25 6.6 5.12414 6.6 4.96875V4.03125C6.6 3.87586 6.70069 3.75 6.825 3.75H7.575C7.69931 3.75 7.8 3.87586 7.8 4.03125V4.96875ZM7.8 2.71875C7.8 2.87414 7.69931 3 7.575 3H6.825C6.70069 3 6.6 2.87414 6.6 2.71875V1.78125C6.6 1.62586 6.70069 1.5 6.825 1.5H7.575C7.69931 1.5 7.8 1.62586 7.8 1.78125V2.71875ZM10.8 9.46875C10.8 9.62414 10.6993 9.75 10.575 9.75H9.825C9.70069 9.75 9.6 9.62414 9.6 9.46875V8.53125C9.6 8.37586 9.70069 8.25 9.825 8.25H10.575C10.6993 8.25 10.8 8.37586 10.8 8.53125V9.46875ZM10.8 7.21875C10.8 7.37414 10.6993 7.5 10.575 7.5H9.825C9.70069 7.5 9.6 7.37414 9.6 7.21875V6.28125C9.6 6.12586 9.70069 6 9.825 6H10.575C10.6993 6 10.8 6.12586 10.8 6.28125V7.21875Z" fill="white"/>
</svg>
