<svg width="30" height="20" viewBox="0 0 12 12" fill="none" xmlns="http://www.w3.org/2000/svg">
    <path d="M11.7 10.5H10.2V2.65899C10.2 2.02009 9.79631 1.50001 9.3 1.50001H7.2V3.00001H9V12H11.7C11.8658 12 12 11.8322 12 11.625V10.875C12 10.6678 11.8658 10.5 11.7 10.5ZM5.8545 0.0236796L2.2545 1.18946C1.98731 1.27595 1.8 1.58673 1.8 1.94344V10.5H0.3C0.13425 10.5 0 10.6678 0 10.875V11.625C0 11.8322 0.13425 12 0.3 12H6.6V0.777664C6.6 0.271883 6.23325 -0.0991329 5.8545 0.0236796ZM4.95 6.75001C4.70156 6.75001 4.5 6.41415 4.5 6.00001C4.5 5.58587 4.70156 5.25001 4.95 5.25001C5.19844 5.25001 5.4 5.58587 5.4 6.00001C5.4 6.41415 5.19844 6.75001 4.95 6.75001Z" fill="white"/>
</svg>
