<svg width="30" height="20" viewBox="0 0 12 12" fill="none" xmlns="http://www.w3.org/2000/svg">
    <path d="M5.84109 3.47485L2.00006 7.03384V10.875C2.00006 10.9745 2.03518 11.0698 2.09769 11.1402C2.1602 11.2105 2.24499 11.25 2.33339 11.25L4.66797 11.2432C4.75609 11.2427 4.84044 11.203 4.9026 11.1327C4.96475 11.0624 4.99964 10.9673 4.99964 10.8682V8.62501C4.99964 8.52555 5.03476 8.43017 5.09727 8.35984C5.15978 8.28952 5.24456 8.25001 5.33297 8.25001H6.6663C6.7547 8.25001 6.83949 8.28952 6.902 8.35984C6.96451 8.43017 6.99963 8.52555 6.99963 8.62501V10.8666C6.99949 10.9159 7.00801 10.9648 7.0247 11.0104C7.04139 11.0561 7.06593 11.0976 7.09689 11.1325C7.12786 11.1674 7.16465 11.1952 7.20516 11.2141C7.24567 11.233 7.2891 11.2427 7.33296 11.2427L9.66671 11.25C9.75511 11.25 9.8399 11.2105 9.90241 11.1402C9.96492 11.0698 10 10.9745 10 10.875V7.03126L6.15984 3.47485C6.11469 3.43391 6.05845 3.41158 6.00047 3.41158C5.94248 3.41158 5.88624 3.43391 5.84109 3.47485ZM11.9084 5.89383L10.1667 4.27876V1.03243C10.1667 0.957833 10.1404 0.886296 10.0935 0.833551C10.0466 0.780807 9.98301 0.751175 9.91671 0.751175H8.75004C8.68374 0.751175 8.62015 0.780807 8.57327 0.833551C8.52638 0.886296 8.50004 0.957833 8.50004 1.03243V2.73422L6.63484 1.00782C6.45584 0.842108 6.23123 0.751506 5.99942 0.751506C5.76762 0.751506 5.54301 0.842108 5.36401 1.00782L0.0904845 5.89383C0.0651695 5.91737 0.0442253 5.94629 0.0288487 5.97894C0.013472 6.01159 0.00396434 6.04733 0.000868805 6.08411C-0.00222673 6.1209 0.00115058 6.15801 0.0108077 6.19332C0.0204649 6.22864 0.0362127 6.26146 0.0571513 6.28993L0.5884 7.01649C0.609281 7.04506 0.634966 7.06871 0.663982 7.08609C0.692999 7.10348 0.724779 7.11425 0.757502 7.1178C0.790224 7.12135 0.823248 7.1176 0.854682 7.10677C0.886116 7.09594 0.915343 7.07825 0.94069 7.0547L5.84109 2.51391C5.88624 2.47297 5.94248 2.45065 6.00047 2.45065C6.05845 2.45065 6.11469 2.47297 6.15984 2.51391L11.0605 7.0547C11.0858 7.07825 11.1149 7.09597 11.1463 7.10683C11.1777 7.1177 11.2107 7.1215 11.2434 7.11801C11.2761 7.11453 11.3079 7.10383 11.3369 7.08654C11.3659 7.06924 11.3916 7.04567 11.4125 7.0172L11.9438 6.29063C11.9647 6.262 11.9804 6.229 11.9899 6.19353C11.9995 6.15807 12.0027 6.12082 11.9994 6.08395C11.9961 6.04708 11.9864 6.0113 11.9707 5.97867C11.9551 5.94605 11.9339 5.91721 11.9084 5.89383Z" fill="white"/>
</svg>
