<svg width="30" height="20" viewBox="0 0 12 12" fill="none" xmlns="http://www.w3.org/2000/svg">
    <path d="M12 8.4375V0.5625C12 0.250781 11.7134 0 11.3571 0H2.57143C1.15179 0 0 1.00781 0 2.25V9.75C0 10.9922 1.15179 12 2.57143 12H11.3571C11.7134 12 12 11.7492 12 11.4375V11.0625C12 10.8867 11.9062 10.7273 11.7616 10.6242C11.6491 10.2633 11.6491 9.23438 11.7616 8.87344C11.9062 8.77266 12 8.61328 12 8.4375ZM3.42857 3.14062C3.42857 3.06328 3.50089 3 3.58929 3H9.26786C9.35625 3 9.42857 3.06328 9.42857 3.14062V3.60938C9.42857 3.68672 9.35625 3.75 9.26786 3.75H3.58929C3.50089 3.75 3.42857 3.68672 3.42857 3.60938V3.14062ZM3.42857 4.64062C3.42857 4.56328 3.50089 4.5 3.58929 4.5H9.26786C9.35625 4.5 9.42857 4.56328 9.42857 4.64062V5.10938C9.42857 5.18672 9.35625 5.25 9.26786 5.25H3.58929C3.50089 5.25 3.42857 5.18672 3.42857 5.10938V4.64062ZM10.2161 10.5H2.57143C2.09732 10.5 1.71429 10.1648 1.71429 9.75C1.71429 9.3375 2.1 9 2.57143 9H10.2161C10.1652 9.40078 10.1652 10.0992 10.2161 10.5Z" fill="white"/>
</svg>
