<svg width="30" height="20" viewBox="0 0 12 12" fill="none" xmlns="http://www.w3.org/2000/svg">
    <path d="M11.7 4.875H10.5V3.375C10.5 3.16875 10.365 3 10.2 3H9.6C9.435 3 9.3 3.16875 9.3 3.375V4.875H8.1C7.935 4.875 7.8 5.04375 7.8 5.25V6C7.8 6.20625 7.935 6.375 8.1 6.375H9.3V7.875C9.3 8.08125 9.435 8.25 9.6 8.25H10.2C10.365 8.25 10.5 8.08125 10.5 7.875V6.375H11.7C11.865 6.375 12 6.20625 12 6V5.25C12 5.04375 11.865 4.875 11.7 4.875ZM4.2 6C5.52563 6 6.6 4.65703 6.6 3C6.6 1.34297 5.52563 0 4.2 0C2.87438 0 1.8 1.34297 1.8 3C1.8 4.65703 2.87438 6 4.2 6ZM5.88 6.75H5.56688C5.15063 6.98906 4.6875 7.125 4.2 7.125C3.7125 7.125 3.25125 6.98906 2.83313 6.75H2.52C1.12875 6.75 0 8.16094 0 9.9V10.875C0 11.4961 0.403125 12 0.9 12H7.5C7.99688 12 8.4 11.4961 8.4 10.875V9.9C8.4 8.16094 7.27125 6.75 5.88 6.75Z" fill="white"/>
</svg>
